<mxfile host="app.diagrams.net" modified="2023-12-16T22:00:58.421Z" agent="Mozilla/5.0 (Windows NT 10.0; Win64; x64) AppleWebKit/537.36 (KHTML, like Gecko) Chrome/119.0.0.0 Safari/537.36 OPR/105.0.0.0" etag="ZdqIXkQApCsspRiSkQxD" version="22.1.11" type="device">
  <diagram name="PÃ¡gina-1" id="9vzip_k9gJqUgEpn7nk9">
    <mxGraphModel dx="1254" dy="727" grid="1" gridSize="10" guides="1" tooltips="1" connect="1" arrows="1" fold="1" page="1" pageScale="1" pageWidth="827" pageHeight="1169" math="0" shadow="0">
      <root>
        <mxCell id="0" />
        <mxCell id="1" parent="0" />
        <mxCell id="f-_UFwZLK2XR_uIfrAdp-9" style="edgeStyle=orthogonalEdgeStyle;rounded=0;orthogonalLoop=1;jettySize=auto;html=1;exitX=0;exitY=0.5;exitDx=0;exitDy=0;entryX=1;entryY=0.5;entryDx=0;entryDy=0;" parent="1" source="f-_UFwZLK2XR_uIfrAdp-1" target="f-_UFwZLK2XR_uIfrAdp-6" edge="1">
          <mxGeometry relative="1" as="geometry" />
        </mxCell>
        <mxCell id="f-_UFwZLK2XR_uIfrAdp-13" style="edgeStyle=orthogonalEdgeStyle;rounded=0;orthogonalLoop=1;jettySize=auto;html=1;exitX=0;exitY=0.5;exitDx=0;exitDy=0;entryX=0.5;entryY=0;entryDx=0;entryDy=0;" parent="1" source="f-_UFwZLK2XR_uIfrAdp-1" target="f-_UFwZLK2XR_uIfrAdp-8" edge="1">
          <mxGeometry relative="1" as="geometry">
            <Array as="points">
              <mxPoint x="180" y="125" />
              <mxPoint x="180" y="205" />
            </Array>
          </mxGeometry>
        </mxCell>
        <mxCell id="XXTwbbG2mgjrx7Vn-x9b-32" value="" style="edgeStyle=orthogonalEdgeStyle;rounded=0;orthogonalLoop=1;jettySize=auto;html=1;" edge="1" parent="1" source="f-_UFwZLK2XR_uIfrAdp-1" target="XXTwbbG2mgjrx7Vn-x9b-31">
          <mxGeometry relative="1" as="geometry" />
        </mxCell>
        <mxCell id="XXTwbbG2mgjrx7Vn-x9b-34" value="1" style="edgeLabel;html=1;align=center;verticalAlign=middle;resizable=0;points=[];" vertex="1" connectable="0" parent="XXTwbbG2mgjrx7Vn-x9b-32">
          <mxGeometry x="-0.4067" relative="1" as="geometry">
            <mxPoint as="offset" />
          </mxGeometry>
        </mxCell>
        <mxCell id="XXTwbbG2mgjrx7Vn-x9b-47" value="" style="edgeStyle=orthogonalEdgeStyle;rounded=0;orthogonalLoop=1;jettySize=auto;html=1;" edge="1" parent="1" source="f-_UFwZLK2XR_uIfrAdp-1" target="XXTwbbG2mgjrx7Vn-x9b-46">
          <mxGeometry relative="1" as="geometry" />
        </mxCell>
        <mxCell id="XXTwbbG2mgjrx7Vn-x9b-49" value="M" style="edgeLabel;html=1;align=center;verticalAlign=middle;resizable=0;points=[];" vertex="1" connectable="0" parent="XXTwbbG2mgjrx7Vn-x9b-47">
          <mxGeometry x="0.0077" relative="1" as="geometry">
            <mxPoint as="offset" />
          </mxGeometry>
        </mxCell>
        <mxCell id="f-_UFwZLK2XR_uIfrAdp-1" value="&lt;font style=&quot;font-size: 14px;&quot;&gt;equipos_torneo&lt;/font&gt;" style="rounded=0;whiteSpace=wrap;html=1;fillColor=none;" parent="1" vertex="1">
          <mxGeometry x="190" y="110" width="110" height="30" as="geometry" />
        </mxCell>
        <mxCell id="f-_UFwZLK2XR_uIfrAdp-2" value="&lt;font style=&quot;font-size: 14px;&quot;&gt;&lt;b&gt;&lt;u&gt;equipo_id&lt;/u&gt;&lt;/b&gt;&lt;/font&gt;" style="ellipse;whiteSpace=wrap;html=1;fillColor=none;rounded=0;" parent="1" vertex="1">
          <mxGeometry x="160" y="30" width="80" height="35" as="geometry" />
        </mxCell>
        <mxCell id="f-_UFwZLK2XR_uIfrAdp-5" value="&lt;span style=&quot;font-size: 14px;&quot;&gt;equipo_nombre&lt;/span&gt;" style="ellipse;whiteSpace=wrap;html=1;fillColor=none;rounded=0;" parent="1" vertex="1">
          <mxGeometry x="65" y="65" width="110" height="35" as="geometry" />
        </mxCell>
        <mxCell id="f-_UFwZLK2XR_uIfrAdp-6" value="&lt;span style=&quot;font-size: 14px;&quot;&gt;torneos_ganados&lt;/span&gt;" style="ellipse;whiteSpace=wrap;html=1;fillColor=none;rounded=0;" parent="1" vertex="1">
          <mxGeometry x="10" y="107.5" width="120" height="35" as="geometry" />
        </mxCell>
        <mxCell id="f-_UFwZLK2XR_uIfrAdp-7" value="&lt;span style=&quot;font-size: 14px;&quot;&gt;&lt;u&gt;pais&lt;/u&gt;&lt;/span&gt;" style="ellipse;whiteSpace=wrap;html=1;fillColor=none;rounded=0;" parent="1" vertex="1">
          <mxGeometry x="50" y="152.5" width="80" height="35" as="geometry" />
        </mxCell>
        <mxCell id="f-_UFwZLK2XR_uIfrAdp-8" value="&lt;span style=&quot;font-size: 14px;&quot;&gt;foto&lt;/span&gt;" style="ellipse;whiteSpace=wrap;html=1;fillColor=none;rounded=0;" parent="1" vertex="1">
          <mxGeometry x="50" y="205" width="80" height="35" as="geometry" />
        </mxCell>
        <mxCell id="f-_UFwZLK2XR_uIfrAdp-10" style="edgeStyle=orthogonalEdgeStyle;rounded=0;orthogonalLoop=1;jettySize=auto;html=1;entryX=0.475;entryY=1.01;entryDx=0;entryDy=0;entryPerimeter=0;" parent="1" edge="1">
          <mxGeometry relative="1" as="geometry">
            <mxPoint x="180" y="124.65" as="sourcePoint" />
            <mxPoint x="198.00000000000006" y="65" as="targetPoint" />
            <Array as="points">
              <mxPoint x="181" y="124.65" />
              <mxPoint x="181" y="94.65" />
              <mxPoint x="198" y="94.65" />
            </Array>
          </mxGeometry>
        </mxCell>
        <mxCell id="f-_UFwZLK2XR_uIfrAdp-11" style="edgeStyle=orthogonalEdgeStyle;rounded=0;orthogonalLoop=1;jettySize=auto;html=1;exitX=0;exitY=0.5;exitDx=0;exitDy=0;entryX=0.87;entryY=0.938;entryDx=0;entryDy=0;entryPerimeter=0;" parent="1" source="f-_UFwZLK2XR_uIfrAdp-1" target="f-_UFwZLK2XR_uIfrAdp-5" edge="1">
          <mxGeometry relative="1" as="geometry" />
        </mxCell>
        <mxCell id="f-_UFwZLK2XR_uIfrAdp-12" style="edgeStyle=orthogonalEdgeStyle;rounded=0;orthogonalLoop=1;jettySize=auto;html=1;exitX=0;exitY=0.5;exitDx=0;exitDy=0;entryX=0.985;entryY=0.326;entryDx=0;entryDy=0;entryPerimeter=0;" parent="1" source="f-_UFwZLK2XR_uIfrAdp-1" target="f-_UFwZLK2XR_uIfrAdp-7" edge="1">
          <mxGeometry relative="1" as="geometry">
            <Array as="points">
              <mxPoint x="170" y="125" />
              <mxPoint x="170" y="166" />
            </Array>
          </mxGeometry>
        </mxCell>
        <mxCell id="XXTwbbG2mgjrx7Vn-x9b-4" value="" style="edgeStyle=orthogonalEdgeStyle;rounded=0;orthogonalLoop=1;jettySize=auto;html=1;" edge="1" parent="1" source="XXTwbbG2mgjrx7Vn-x9b-1" target="XXTwbbG2mgjrx7Vn-x9b-3">
          <mxGeometry relative="1" as="geometry" />
        </mxCell>
        <mxCell id="XXTwbbG2mgjrx7Vn-x9b-9" style="edgeStyle=orthogonalEdgeStyle;rounded=0;orthogonalLoop=1;jettySize=auto;html=1;exitX=1;exitY=0.5;exitDx=0;exitDy=0;entryX=0.5;entryY=1;entryDx=0;entryDy=0;" edge="1" parent="1" source="XXTwbbG2mgjrx7Vn-x9b-1" target="XXTwbbG2mgjrx7Vn-x9b-8">
          <mxGeometry relative="1" as="geometry" />
        </mxCell>
        <mxCell id="XXTwbbG2mgjrx7Vn-x9b-10" style="edgeStyle=orthogonalEdgeStyle;rounded=0;orthogonalLoop=1;jettySize=auto;html=1;exitX=1;exitY=0.5;exitDx=0;exitDy=0;entryX=0;entryY=0.5;entryDx=0;entryDy=0;" edge="1" parent="1" source="XXTwbbG2mgjrx7Vn-x9b-1" target="XXTwbbG2mgjrx7Vn-x9b-5">
          <mxGeometry relative="1" as="geometry">
            <Array as="points">
              <mxPoint x="630" y="125" />
              <mxPoint x="630" y="73" />
            </Array>
          </mxGeometry>
        </mxCell>
        <mxCell id="XXTwbbG2mgjrx7Vn-x9b-11" style="edgeStyle=orthogonalEdgeStyle;rounded=0;orthogonalLoop=1;jettySize=auto;html=1;exitX=1;exitY=0.5;exitDx=0;exitDy=0;entryX=0;entryY=0.5;entryDx=0;entryDy=0;" edge="1" parent="1" source="XXTwbbG2mgjrx7Vn-x9b-1" target="XXTwbbG2mgjrx7Vn-x9b-6">
          <mxGeometry relative="1" as="geometry">
            <Array as="points">
              <mxPoint x="630" y="125" />
              <mxPoint x="630" y="177" />
            </Array>
          </mxGeometry>
        </mxCell>
        <mxCell id="XXTwbbG2mgjrx7Vn-x9b-13" style="edgeStyle=orthogonalEdgeStyle;rounded=0;orthogonalLoop=1;jettySize=auto;html=1;exitX=1;exitY=0.5;exitDx=0;exitDy=0;entryX=0;entryY=0;entryDx=0;entryDy=0;" edge="1" parent="1" source="XXTwbbG2mgjrx7Vn-x9b-1" target="XXTwbbG2mgjrx7Vn-x9b-7">
          <mxGeometry relative="1" as="geometry" />
        </mxCell>
        <mxCell id="XXTwbbG2mgjrx7Vn-x9b-37" value="" style="edgeStyle=orthogonalEdgeStyle;rounded=0;orthogonalLoop=1;jettySize=auto;html=1;" edge="1" parent="1" source="XXTwbbG2mgjrx7Vn-x9b-1" target="XXTwbbG2mgjrx7Vn-x9b-36">
          <mxGeometry relative="1" as="geometry" />
        </mxCell>
        <mxCell id="XXTwbbG2mgjrx7Vn-x9b-39" value="M" style="edgeLabel;html=1;align=center;verticalAlign=middle;resizable=0;points=[];" vertex="1" connectable="0" parent="XXTwbbG2mgjrx7Vn-x9b-37">
          <mxGeometry x="-0.1461" relative="1" as="geometry">
            <mxPoint as="offset" />
          </mxGeometry>
        </mxCell>
        <mxCell id="XXTwbbG2mgjrx7Vn-x9b-42" value="" style="edgeStyle=orthogonalEdgeStyle;rounded=0;orthogonalLoop=1;jettySize=auto;html=1;entryX=0.5;entryY=0;entryDx=0;entryDy=0;" edge="1" parent="1" source="XXTwbbG2mgjrx7Vn-x9b-1" target="XXTwbbG2mgjrx7Vn-x9b-41">
          <mxGeometry relative="1" as="geometry">
            <Array as="points">
              <mxPoint x="490" y="200" />
              <mxPoint x="373" y="200" />
            </Array>
          </mxGeometry>
        </mxCell>
        <mxCell id="XXTwbbG2mgjrx7Vn-x9b-44" value="M" style="edgeLabel;html=1;align=center;verticalAlign=middle;resizable=0;points=[];" vertex="1" connectable="0" parent="XXTwbbG2mgjrx7Vn-x9b-42">
          <mxGeometry x="-0.8247" y="2" relative="1" as="geometry">
            <mxPoint as="offset" />
          </mxGeometry>
        </mxCell>
        <mxCell id="XXTwbbG2mgjrx7Vn-x9b-1" value="&lt;span style=&quot;font-size: 14px;&quot;&gt;jugadores&lt;br&gt;&lt;/span&gt;" style="rounded=0;whiteSpace=wrap;html=1;fillColor=none;" vertex="1" parent="1">
          <mxGeometry x="490" y="110" width="90" height="30" as="geometry" />
        </mxCell>
        <mxCell id="XXTwbbG2mgjrx7Vn-x9b-3" value="&lt;b&gt;&lt;u&gt;equipo_jugador_id&lt;/u&gt;&lt;/b&gt;" style="ellipse;whiteSpace=wrap;html=1;fillColor=none;rounded=0;" vertex="1" parent="1">
          <mxGeometry x="650" y="107.5" width="120" height="35" as="geometry" />
        </mxCell>
        <mxCell id="XXTwbbG2mgjrx7Vn-x9b-5" value="&lt;u&gt;&lt;b&gt;apodo&lt;/b&gt;&lt;/u&gt;" style="ellipse;whiteSpace=wrap;html=1;fillColor=none;rounded=0;" vertex="1" parent="1">
          <mxGeometry x="650" y="55" width="70" height="35" as="geometry" />
        </mxCell>
        <mxCell id="XXTwbbG2mgjrx7Vn-x9b-6" value="&lt;b&gt;&lt;u&gt;posicion&lt;/u&gt;&lt;/b&gt;" style="ellipse;whiteSpace=wrap;html=1;fillColor=none;rounded=0;" vertex="1" parent="1">
          <mxGeometry x="650" y="160" width="70" height="35" as="geometry" />
        </mxCell>
        <mxCell id="XXTwbbG2mgjrx7Vn-x9b-7" value="&lt;b&gt;&lt;u&gt;nombre&lt;/u&gt;&lt;/b&gt;" style="ellipse;whiteSpace=wrap;html=1;fillColor=none;rounded=0;" vertex="1" parent="1">
          <mxGeometry x="610" y="195" width="70" height="35" as="geometry" />
        </mxCell>
        <mxCell id="XXTwbbG2mgjrx7Vn-x9b-8" value="edad" style="ellipse;whiteSpace=wrap;html=1;fillColor=none;rounded=0;" vertex="1" parent="1">
          <mxGeometry x="590" y="10" width="70" height="35" as="geometry" />
        </mxCell>
        <mxCell id="XXTwbbG2mgjrx7Vn-x9b-29" style="edgeStyle=orthogonalEdgeStyle;rounded=0;orthogonalLoop=1;jettySize=auto;html=1;exitX=1;exitY=0.5;exitDx=0;exitDy=0;entryX=0;entryY=0.5;entryDx=0;entryDy=0;" edge="1" parent="1" source="XXTwbbG2mgjrx7Vn-x9b-14" target="XXTwbbG2mgjrx7Vn-x9b-17">
          <mxGeometry relative="1" as="geometry" />
        </mxCell>
        <mxCell id="XXTwbbG2mgjrx7Vn-x9b-30" style="edgeStyle=orthogonalEdgeStyle;rounded=0;orthogonalLoop=1;jettySize=auto;html=1;exitX=1;exitY=0.5;exitDx=0;exitDy=0;entryX=0;entryY=0.5;entryDx=0;entryDy=0;" edge="1" parent="1" source="XXTwbbG2mgjrx7Vn-x9b-14" target="XXTwbbG2mgjrx7Vn-x9b-15">
          <mxGeometry relative="1" as="geometry">
            <Array as="points">
              <mxPoint x="610" y="363" />
              <mxPoint x="610" y="391" />
            </Array>
          </mxGeometry>
        </mxCell>
        <mxCell id="XXTwbbG2mgjrx7Vn-x9b-14" value="&lt;span style=&quot;font-size: 14px;&quot;&gt;posiciones&lt;br&gt;&lt;/span&gt;" style="rounded=0;whiteSpace=wrap;html=1;fillColor=none;" vertex="1" parent="1">
          <mxGeometry x="490" y="347.5" width="90" height="30" as="geometry" />
        </mxCell>
        <mxCell id="XXTwbbG2mgjrx7Vn-x9b-15" value="&lt;u&gt;&lt;b&gt;posicion_id&lt;/b&gt;&lt;/u&gt;" style="ellipse;whiteSpace=wrap;html=1;fillColor=none;rounded=0;" vertex="1" parent="1">
          <mxGeometry x="630" y="377.5" width="90" height="27.5" as="geometry" />
        </mxCell>
        <mxCell id="XXTwbbG2mgjrx7Vn-x9b-17" value="nombre" style="ellipse;whiteSpace=wrap;html=1;fillColor=none;rounded=0;" vertex="1" parent="1">
          <mxGeometry x="630" y="320" width="90" height="27.5" as="geometry" />
        </mxCell>
        <mxCell id="XXTwbbG2mgjrx7Vn-x9b-27" style="edgeStyle=orthogonalEdgeStyle;rounded=0;orthogonalLoop=1;jettySize=auto;html=1;exitX=0;exitY=0.5;exitDx=0;exitDy=0;entryX=1;entryY=0.5;entryDx=0;entryDy=0;" edge="1" parent="1" source="XXTwbbG2mgjrx7Vn-x9b-21" target="XXTwbbG2mgjrx7Vn-x9b-23">
          <mxGeometry relative="1" as="geometry" />
        </mxCell>
        <mxCell id="XXTwbbG2mgjrx7Vn-x9b-28" style="edgeStyle=orthogonalEdgeStyle;rounded=0;orthogonalLoop=1;jettySize=auto;html=1;exitX=0;exitY=0.5;exitDx=0;exitDy=0;entryX=1;entryY=0.5;entryDx=0;entryDy=0;" edge="1" parent="1" source="XXTwbbG2mgjrx7Vn-x9b-21" target="XXTwbbG2mgjrx7Vn-x9b-22">
          <mxGeometry relative="1" as="geometry">
            <Array as="points">
              <mxPoint x="200" y="366.25" />
              <mxPoint x="180" y="366.25" />
              <mxPoint x="180" y="386.25" />
            </Array>
          </mxGeometry>
        </mxCell>
        <mxCell id="XXTwbbG2mgjrx7Vn-x9b-21" value="&lt;span style=&quot;font-size: 14px;&quot;&gt;pais&lt;br&gt;&lt;/span&gt;" style="rounded=0;whiteSpace=wrap;html=1;fillColor=none;" vertex="1" parent="1">
          <mxGeometry x="200" y="341.25" width="90" height="30" as="geometry" />
        </mxCell>
        <mxCell id="XXTwbbG2mgjrx7Vn-x9b-22" value="&lt;b&gt;&lt;u&gt;pais_id&lt;/u&gt;&lt;/b&gt;" style="ellipse;whiteSpace=wrap;html=1;fillColor=none;rounded=0;" vertex="1" parent="1">
          <mxGeometry x="70" y="371.25" width="90" height="30" as="geometry" />
        </mxCell>
        <mxCell id="XXTwbbG2mgjrx7Vn-x9b-23" value="nombre" style="ellipse;whiteSpace=wrap;html=1;fillColor=none;rounded=0;" vertex="1" parent="1">
          <mxGeometry x="70" y="323.75" width="90" height="27.5" as="geometry" />
        </mxCell>
        <mxCell id="XXTwbbG2mgjrx7Vn-x9b-26" style="edgeStyle=orthogonalEdgeStyle;rounded=0;orthogonalLoop=1;jettySize=auto;html=1;exitX=0.5;exitY=1;exitDx=0;exitDy=0;entryX=0.746;entryY=0.91;entryDx=0;entryDy=0;entryPerimeter=0;" edge="1" parent="1" source="f-_UFwZLK2XR_uIfrAdp-7" target="f-_UFwZLK2XR_uIfrAdp-7">
          <mxGeometry relative="1" as="geometry" />
        </mxCell>
        <mxCell id="XXTwbbG2mgjrx7Vn-x9b-33" style="edgeStyle=orthogonalEdgeStyle;rounded=0;orthogonalLoop=1;jettySize=auto;html=1;exitX=1;exitY=0.5;exitDx=0;exitDy=0;entryX=0;entryY=0.5;entryDx=0;entryDy=0;" edge="1" parent="1" source="XXTwbbG2mgjrx7Vn-x9b-31" target="XXTwbbG2mgjrx7Vn-x9b-1">
          <mxGeometry relative="1" as="geometry" />
        </mxCell>
        <mxCell id="XXTwbbG2mgjrx7Vn-x9b-35" value="M" style="edgeLabel;html=1;align=center;verticalAlign=middle;resizable=0;points=[];" vertex="1" connectable="0" parent="XXTwbbG2mgjrx7Vn-x9b-33">
          <mxGeometry x="0.128" y="2" relative="1" as="geometry">
            <mxPoint as="offset" />
          </mxGeometry>
        </mxCell>
        <mxCell id="XXTwbbG2mgjrx7Vn-x9b-31" value="&lt;font style=&quot;font-size: 14px;&quot;&gt;Tiene&lt;/font&gt;" style="rhombus;whiteSpace=wrap;html=1;fillColor=none;rounded=0;" vertex="1" parent="1">
          <mxGeometry x="360" y="102.5" width="80" height="45" as="geometry" />
        </mxCell>
        <mxCell id="XXTwbbG2mgjrx7Vn-x9b-38" style="edgeStyle=orthogonalEdgeStyle;rounded=0;orthogonalLoop=1;jettySize=auto;html=1;exitX=0.5;exitY=1;exitDx=0;exitDy=0;entryX=0.5;entryY=0;entryDx=0;entryDy=0;" edge="1" parent="1" source="XXTwbbG2mgjrx7Vn-x9b-36" target="XXTwbbG2mgjrx7Vn-x9b-14">
          <mxGeometry relative="1" as="geometry" />
        </mxCell>
        <mxCell id="XXTwbbG2mgjrx7Vn-x9b-40" value="1" style="edgeLabel;html=1;align=center;verticalAlign=middle;resizable=0;points=[];" vertex="1" connectable="0" parent="XXTwbbG2mgjrx7Vn-x9b-38">
          <mxGeometry x="-0.1572" relative="1" as="geometry">
            <mxPoint as="offset" />
          </mxGeometry>
        </mxCell>
        <mxCell id="XXTwbbG2mgjrx7Vn-x9b-36" value="Juega" style="rhombus;whiteSpace=wrap;html=1;fillColor=none;rounded=0;" vertex="1" parent="1">
          <mxGeometry x="495" y="195" width="80" height="80" as="geometry" />
        </mxCell>
        <mxCell id="XXTwbbG2mgjrx7Vn-x9b-43" style="edgeStyle=orthogonalEdgeStyle;rounded=0;orthogonalLoop=1;jettySize=auto;html=1;exitX=0.5;exitY=1;exitDx=0;exitDy=0;entryX=1;entryY=0.5;entryDx=0;entryDy=0;" edge="1" parent="1" source="XXTwbbG2mgjrx7Vn-x9b-41" target="XXTwbbG2mgjrx7Vn-x9b-21">
          <mxGeometry relative="1" as="geometry" />
        </mxCell>
        <mxCell id="XXTwbbG2mgjrx7Vn-x9b-45" value="1" style="edgeLabel;html=1;align=center;verticalAlign=middle;resizable=0;points=[];" vertex="1" connectable="0" parent="XXTwbbG2mgjrx7Vn-x9b-43">
          <mxGeometry x="0.3975" relative="1" as="geometry">
            <mxPoint as="offset" />
          </mxGeometry>
        </mxCell>
        <mxCell id="XXTwbbG2mgjrx7Vn-x9b-41" value="Pertenece" style="rhombus;whiteSpace=wrap;html=1;fillColor=none;rounded=0;" vertex="1" parent="1">
          <mxGeometry x="333" y="230" width="80" height="50" as="geometry" />
        </mxCell>
        <mxCell id="XXTwbbG2mgjrx7Vn-x9b-48" style="edgeStyle=orthogonalEdgeStyle;rounded=0;orthogonalLoop=1;jettySize=auto;html=1;exitX=0.5;exitY=1;exitDx=0;exitDy=0;" edge="1" parent="1" source="XXTwbbG2mgjrx7Vn-x9b-46" target="XXTwbbG2mgjrx7Vn-x9b-21">
          <mxGeometry relative="1" as="geometry" />
        </mxCell>
        <mxCell id="XXTwbbG2mgjrx7Vn-x9b-52" value="1" style="edgeLabel;html=1;align=center;verticalAlign=middle;resizable=0;points=[];" vertex="1" connectable="0" parent="XXTwbbG2mgjrx7Vn-x9b-48">
          <mxGeometry x="0.1314" y="-1" relative="1" as="geometry">
            <mxPoint as="offset" />
          </mxGeometry>
        </mxCell>
        <mxCell id="XXTwbbG2mgjrx7Vn-x9b-46" value="Pertence" style="rhombus;whiteSpace=wrap;html=1;fillColor=none;rounded=0;" vertex="1" parent="1">
          <mxGeometry x="205" y="205" width="80" height="80" as="geometry" />
        </mxCell>
      </root>
    </mxGraphModel>
  </diagram>
</mxfile>
